<svg width="167" height="35" viewBox="0 0 167 35" fill="none" xmlns="http://www.w3.org/2000/svg">
<path d="M11.8569 28.9655C17.8852 28.9655 22.117 25.8276 22.117 20.2356C22.117 15.2471 18.9232 13.1954 13.2542 11.7069C8.42361 10.4598 7.22594 9.85632 7.22594 8.00575C7.22594 6.55747 8.46353 5.47127 10.8189 5.47127C13.1744 5.47127 15.6096 6.51724 18.0848 8.24713L21.2786 3.58046C18.4441 1.28736 14.9709 0 10.8988 0C5.1899 0 1.11782 3.37931 1.11782 8.48851C1.11782 14.1609 4.75075 15.7299 10.3798 17.1782C15.0507 18.3851 16.0088 19.1897 16.0088 20.7586C16.0088 22.4885 14.4918 23.4943 11.9767 23.4943C8.78291 23.4943 6.14804 22.1667 3.63293 20.0747L0 24.4598C3.35347 27.477 7.62516 28.9655 11.8569 28.9655Z" fill="#00315C"/>
<path d="M26.8138 35H32.8819V25.7471C34.3191 27.477 36.3153 28.9655 39.549 28.9655C44.6191 28.9655 49.29 25.023 49.29 17.8218C49.29 10.5402 44.5393 6.5977 39.549 6.5977C36.3951 6.5977 34.3591 8.08621 32.8819 10.0977V7H26.8138V35ZM37.992 23.7759C35.1575 23.7759 32.8021 21.4023 32.8021 17.8218C32.8021 14.1609 35.1575 11.7874 37.992 11.7874C40.8265 11.7874 43.2218 14.1609 43.2218 17.7414C43.2218 21.4425 40.8265 23.7759 37.992 23.7759Z" fill="#00315C"/>
<path d="M53.7535 28.5632H59.8217V20.5977C59.8217 15.4483 62.2969 12.9943 66.329 12.9943H66.6484V6.5977C63.0554 6.43678 61.0593 8.36782 59.8217 11.3448V7H53.7535V28.5632Z" fill="#00315C"/>
<path d="M75.4943 28.9655C78.4486 28.9655 80.4846 27.8793 81.9617 26.2299V28.5632H87.8303V16.0517C87.8303 13.1552 87.1117 10.7816 85.5148 9.17241C83.9978 7.64368 81.6024 6.75862 78.2889 6.75862C74.656 6.75862 72.3405 7.44253 69.985 8.48851L71.5021 13.1552C73.4583 12.431 75.0951 11.9885 77.4106 11.9885C80.4447 11.9885 82.0017 13.3966 82.0017 15.931V16.2931C80.4846 15.7701 78.9276 15.408 76.7718 15.408C71.7017 15.408 68.1486 17.5805 68.1486 22.2874C68.1486 26.6322 71.4622 28.9655 75.4943 28.9655ZM77.3307 24.7414C75.3746 24.7414 74.0172 23.7759 74.0172 22.1264C74.0172 20.1149 75.6141 19.069 78.209 19.069C79.6862 19.069 81.0435 19.3908 82.0815 19.8736V20.9598C82.0815 23.1724 80.1652 24.7414 77.3307 24.7414Z" fill="#00315C"/>
<path d="M98.7796 28.7241H104.289L112.713 7H106.405L101.574 21.4425L96.7835 7H90.356L98.7796 28.7241Z" fill="#00315C"/>
<path d="M112.579 28.5632H119.046V22.1264H112.579V28.5632Z" fill="#00315C"/>
<path d="M131.348 28.9655C134.422 28.9655 136.218 27.3161 137.615 25.5057V28.5632H143.684V7H137.615V19.0287C137.615 21.9253 136.138 23.4138 133.823 23.4138C131.507 23.4138 130.15 21.9253 130.15 19.0287V7H124.082V20.9598C124.082 25.908 126.756 28.9655 131.348 28.9655Z" fill="#00315C"/>
<path d="M148.396 28.5632H167V23.6149H155.902L167 11.3046V7H148.756V11.9483H159.455L148.396 24.2586V28.5632Z" fill="#00315C"/>
</svg>
