<svg width="135" height="12" viewBox="0 0 135 12" fill="none" xmlns="http://www.w3.org/2000/svg">
<path d="M5.89109 6.42495H7.10994C7.04646 7.00846 6.87929 7.53066 6.60844 7.99154C6.33758 8.45243 5.95458 8.81818 5.45942 9.08879C4.96426 9.35518 4.34637 9.48837 3.60576 9.48837C3.06405 9.48837 2.57101 9.38689 2.12663 9.18393C1.68649 8.98097 1.30772 8.69345 0.990313 8.32135C0.672905 7.94503 0.427443 7.49471 0.253926 6.9704C0.0846421 6.44186 0 5.85412 0 5.20719V4.28753C0 3.64059 0.0846421 3.05497 0.253926 2.53066C0.427443 2.00211 0.675021 1.54968 0.996661 1.17336C1.32253 0.79704 1.714 0.5074 2.17107 0.30444C2.62814 0.10148 3.14234 0 3.71367 0C4.41197 0 5.00235 0.131078 5.48481 0.393235C5.96727 0.655391 6.34181 1.01903 6.60844 1.48414C6.87929 1.94503 7.04646 2.47992 7.10994 3.08879H5.89109C5.83184 2.65751 5.72181 2.28753 5.56099 1.97886C5.40017 1.66596 5.17164 1.42495 4.87539 1.25581C4.57914 1.08668 4.1919 1.00211 3.71367 1.00211C3.30316 1.00211 2.94131 1.08034 2.62814 1.23679C2.3192 1.39323 2.05892 1.61522 1.84732 1.90275C1.63994 2.19027 1.48335 2.53488 1.37755 2.93658C1.27175 3.33827 1.21885 3.78436 1.21885 4.27484V5.20719C1.21885 5.65962 1.2654 6.08457 1.35851 6.48203C1.45585 6.87949 1.60185 7.22833 1.79653 7.52854C1.99121 7.82875 2.23879 8.06554 2.53926 8.2389C2.83974 8.40803 3.19524 8.4926 3.60576 8.4926C4.12631 8.4926 4.54105 8.41015 4.85 8.24524C5.15894 8.08034 5.39171 7.84355 5.54829 7.53488C5.70911 7.22622 5.82338 6.85624 5.89109 6.42495Z" fill="#0AA9B4"/>
<path d="M13.1788 2.49894V3.46934H9.70634V2.49894H13.1788ZM9.87774 2.49894V9.36152H8.70333V2.49894H9.87774ZM14.2199 2.49894V9.36152H13.0391V2.49894H14.2199Z" fill="#0AA9B4"/>
<path d="M17.2797 3.81818V12H16.0989V2.49894H17.1781L17.2797 3.81818ZM21.9075 5.87315V6.00634C21.9075 6.50529 21.8483 6.96829 21.7298 7.39535C21.6113 7.81818 21.4377 8.18605 21.2092 8.49894C20.9849 8.81184 20.7077 9.05497 20.3776 9.22833C20.0475 9.40169 19.6687 9.48837 19.2413 9.48837C18.8054 9.48837 18.4202 9.41649 18.0859 9.27273C17.7516 9.12896 17.468 8.91966 17.2353 8.64482C17.0025 8.36998 16.8163 8.04017 16.6766 7.65539C16.5412 7.27061 16.4481 6.83721 16.3973 6.35518V5.64482C16.4481 5.13742 16.5433 4.68288 16.683 4.28118C16.8226 3.87949 17.0067 3.537 17.2353 3.2537C17.468 2.96617 17.7495 2.74841 18.0796 2.60042C18.4097 2.4482 18.7906 2.37209 19.2222 2.37209C19.6539 2.37209 20.0369 2.45666 20.3713 2.62579C20.7056 2.7907 20.987 3.02748 21.2156 3.33615C21.4441 3.64482 21.6155 4.0148 21.7298 4.44609C21.8483 4.87315 21.9075 5.34884 21.9075 5.87315ZM20.7267 6.00634V5.87315C20.7267 5.53066 20.6908 5.2093 20.6188 4.90909C20.5469 4.60465 20.4347 4.33827 20.2824 4.10994C20.1343 3.87738 19.9438 3.69556 19.711 3.56448C19.4783 3.42918 19.2011 3.36152 18.8794 3.36152C18.5832 3.36152 18.325 3.41226 18.105 3.51374C17.8891 3.61522 17.705 3.75264 17.5527 3.926C17.4003 4.09514 17.2755 4.28964 17.1781 4.50951C17.085 4.72516 17.0152 4.94926 16.9686 5.18182V6.82452C17.0533 7.12051 17.1718 7.39958 17.3241 7.66173C17.4765 7.91966 17.6796 8.12896 17.9336 8.28964C18.1875 8.44609 18.507 8.52431 18.8921 8.52431C19.2095 8.52431 19.4825 8.45877 19.711 8.3277C19.9438 8.19239 20.1343 8.00846 20.2824 7.7759C20.4347 7.54334 20.5469 7.27696 20.6188 6.97674C20.6908 6.6723 20.7267 6.34884 20.7267 6.00634Z" fill="#0AA9B4"/>
<path d="M27.4558 8.18816V4.65539C27.4558 4.38478 27.4008 4.15011 27.2907 3.95137C27.1849 3.74841 27.0241 3.59197 26.8083 3.48203C26.5924 3.37209 26.3258 3.31712 26.0084 3.31712C25.7122 3.31712 25.4519 3.36786 25.2276 3.46934C25.0075 3.57082 24.834 3.70402 24.707 3.86892C24.5843 4.03383 24.5229 4.21142 24.5229 4.40169H23.3485C23.3485 4.15645 23.412 3.91332 23.539 3.6723C23.6659 3.43129 23.8479 3.21353 24.0849 3.01903C24.3262 2.8203 24.6139 2.66385 24.9483 2.54968C25.2868 2.43129 25.6635 2.37209 26.0782 2.37209C26.5776 2.37209 27.0178 2.45666 27.3987 2.62579C27.7838 2.79493 28.0843 3.05074 28.3001 3.39323C28.5202 3.7315 28.6302 4.15645 28.6302 4.66808V7.86469C28.6302 8.09302 28.6493 8.33615 28.6873 8.59408C28.7297 8.85201 28.791 9.074 28.8714 9.26004V9.36152H27.6462C27.587 9.22622 27.5404 9.04651 27.5066 8.82241C27.4727 8.59408 27.4558 8.38266 27.4558 8.18816ZM27.6589 5.20085L27.6716 6.02537H26.4845C26.1502 6.02537 25.8518 6.05285 25.5894 6.10782C25.327 6.15856 25.107 6.23679 24.9292 6.34249C24.7515 6.4482 24.6161 6.5814 24.5229 6.74207C24.4298 6.89852 24.3833 7.08245 24.3833 7.29387C24.3833 7.50951 24.432 7.70613 24.5293 7.88372C24.6266 8.06131 24.7726 8.20296 24.9673 8.30867C25.1662 8.41015 25.4096 8.46089 25.6974 8.46089C26.0571 8.46089 26.3745 8.38478 26.6496 8.23256C26.9247 8.08034 27.1426 7.89429 27.3034 7.67442C27.4685 7.45455 27.5574 7.24101 27.5701 7.03383L28.0716 7.59831C28.0419 7.7759 27.9615 7.97252 27.8303 8.18816C27.6991 8.40381 27.5235 8.61099 27.3034 8.80972C27.0876 9.00423 26.8294 9.16702 26.529 9.2981C26.2327 9.42495 25.8984 9.48837 25.526 9.48837C25.0604 9.48837 24.652 9.39746 24.3008 9.21564C23.9537 9.03383 23.6829 8.7907 23.4882 8.48626C23.2978 8.17759 23.2025 7.83298 23.2025 7.45243C23.2025 7.08457 23.2745 6.7611 23.4184 6.48203C23.5623 6.19873 23.7696 5.96406 24.0405 5.77801C24.3113 5.58774 24.6372 5.44397 25.0181 5.34672C25.399 5.24947 25.8243 5.20085 26.2941 5.20085H27.6589Z" fill="#0AA9B4"/>
<path d="M33.7024 6.34249H31.4488L31.4361 5.40381H33.2771C33.641 5.40381 33.9436 5.36786 34.1849 5.29598C34.4303 5.2241 34.6144 5.11628 34.7371 4.97252C34.8599 4.82875 34.9212 4.65116 34.9212 4.43975C34.9212 4.27484 34.8853 4.13108 34.8133 4.00846C34.7456 3.88161 34.6419 3.77801 34.5023 3.69767C34.3626 3.61311 34.1891 3.5518 33.9817 3.51374C33.7786 3.47146 33.5395 3.45032 33.2644 3.45032H31.7599V9.36152H30.5854V2.49894H33.2644C33.7003 2.49894 34.0917 2.537 34.4388 2.61311C34.79 2.68922 35.0884 2.8055 35.3339 2.96195C35.5836 3.11416 35.774 3.30867 35.9052 3.54545C36.0364 3.78224 36.102 4.06131 36.102 4.38266C36.102 4.58985 36.0597 4.78647 35.975 4.97252C35.8904 5.15856 35.7655 5.32347 35.6005 5.46723C35.4354 5.61099 35.2323 5.72939 34.9911 5.82241C34.7498 5.91121 34.4726 5.96829 34.1595 5.99366L33.7024 6.34249ZM33.7024 9.36152H31.0235L31.6075 8.41015H33.7024C34.0283 8.41015 34.2991 8.36998 34.515 8.28964C34.7308 8.20507 34.8916 8.08668 34.9974 7.93446C35.1075 7.77801 35.1625 7.59197 35.1625 7.37632C35.1625 7.16068 35.1075 6.97674 34.9974 6.82452C34.8916 6.66808 34.7308 6.54968 34.515 6.46934C34.2991 6.38478 34.0283 6.34249 33.7024 6.34249H31.9186L31.9313 5.40381H34.1595L34.5848 5.75899C34.9614 5.78858 35.281 5.88161 35.5434 6.03805C35.8057 6.1945 36.0047 6.39323 36.1401 6.63425C36.2755 6.87104 36.3432 7.12896 36.3432 7.40803C36.3432 7.72939 36.2819 8.01268 36.1591 8.25793C36.0406 8.50317 35.8671 8.70825 35.6386 8.87315C35.41 9.03383 35.1328 9.15645 34.807 9.24101C34.4811 9.32135 34.1129 9.36152 33.7024 9.36152Z" fill="#0AA9B4"/>
<path d="M37.6065 6.00634V5.86047C37.6065 5.36575 37.6785 4.90698 37.8223 4.48414C37.9662 4.05708 38.1736 3.6871 38.4445 3.37421C38.7153 3.05708 39.0433 2.81184 39.4284 2.63848C39.8136 2.46089 40.2452 2.37209 40.7235 2.37209C41.2059 2.37209 41.6397 2.46089 42.0248 2.63848C42.4142 2.81184 42.7443 3.05708 43.0151 3.37421C43.2902 3.6871 43.4997 4.05708 43.6436 4.48414C43.7875 4.90698 43.8594 5.36575 43.8594 5.86047V6.00634C43.8594 6.50106 43.7875 6.95983 43.6436 7.38266C43.4997 7.8055 43.2902 8.17548 43.0151 8.4926C42.7443 8.8055 42.4163 9.05074 42.0312 9.22833C41.6503 9.40169 41.2186 9.48837 40.7362 9.48837C40.2537 9.48837 39.8199 9.40169 39.4348 9.22833C39.0497 9.05074 38.7196 8.8055 38.4445 8.4926C38.1736 8.17548 37.9662 7.8055 37.8223 7.38266C37.6785 6.95983 37.6065 6.50106 37.6065 6.00634ZM38.7809 5.86047V6.00634C38.7809 6.34884 38.8211 6.6723 38.9015 6.97674C38.9819 7.27696 39.1026 7.54334 39.2634 7.7759C39.4284 8.00846 39.6337 8.19239 39.8792 8.3277C40.1246 8.45877 40.4103 8.52431 40.7362 8.52431C41.0578 8.52431 41.3392 8.45877 41.5805 8.3277C41.8259 8.19239 42.0291 8.00846 42.1899 7.7759C42.3507 7.54334 42.4713 7.27696 42.5517 6.97674C42.6364 6.6723 42.6787 6.34884 42.6787 6.00634V5.86047C42.6787 5.5222 42.6364 5.20296 42.5517 4.90275C42.4713 4.59831 42.3486 4.32981 42.1835 4.09725C42.0227 3.86046 41.8196 3.67442 41.5741 3.53911C41.3329 3.40381 41.0493 3.33615 40.7235 3.33615C40.4018 3.33615 40.1183 3.40381 39.8728 3.53911C39.6316 3.67442 39.4284 3.86046 39.2634 4.09725C39.1026 4.32981 38.9819 4.59831 38.9015 4.90275C38.8211 5.20296 38.7809 5.5222 38.7809 5.86047Z" fill="#0AA9B4"/>
<path d="M50.5123 2.49894V9.36152H49.3379V2.49894H50.5123ZM50.1124 5.65116V6.61522C49.8754 6.70402 49.6342 6.78436 49.3887 6.85624C49.1475 6.92389 48.8914 6.97886 48.6206 7.02114C48.3539 7.0592 48.064 7.07822 47.7509 7.07822C47.2092 7.07822 46.7394 6.9852 46.3416 6.79915C45.9438 6.60888 45.6369 6.32347 45.4211 5.94292C45.2053 5.55814 45.0973 5.074 45.0973 4.49049V2.48626H46.2718V4.49049C46.2718 4.87104 46.3289 5.1797 46.4431 5.41649C46.5574 5.65328 46.7246 5.82875 46.9447 5.94292C47.1647 6.05285 47.4335 6.10782 47.7509 6.10782C48.0556 6.10782 48.3413 6.0888 48.6079 6.05074C48.8787 6.00846 49.1369 5.95349 49.3824 5.88584C49.632 5.81818 49.8754 5.73996 50.1124 5.65116Z" fill="#0AA9B4"/>
<path d="M57.0636 5.47357V6.42495H53.4325V5.47357H57.0636ZM53.6801 2.49894V9.36152H52.5056V2.49894H53.6801ZM58.0159 2.49894V9.36152H56.8351V2.49894H58.0159Z" fill="#0AA9B4"/>
<path d="M61.1772 7.50317L64.345 2.49894H65.5257V9.36152H64.345V4.35729L61.1772 9.36152H60.0092V2.49894H61.1772V7.50317Z" fill="#0AA9B4"/>
<path d="M68.6871 2.49894V9.36152H67.5127V2.49894H68.6871ZM73.1943 2.49894L69.9377 6.43129H68.2935L68.1158 5.40381H69.4616L71.766 2.49894H73.1943ZM71.931 9.36152L69.4044 6.2537L70.1599 5.40381L73.4228 9.36152H71.931Z" fill="#0AA9B4"/>
<path d="M81.0089 0.12685V9.36152H79.8027V0.12685H81.0089ZM83.9798 0.12685V1.12896H76.8382V0.12685H83.9798Z" fill="#0AA9B4"/>
<path d="M88.4997 8.18816V4.65539C88.4997 4.38478 88.4447 4.15011 88.3347 3.95137C88.2289 3.74841 88.068 3.59197 87.8522 3.48203C87.6364 3.37209 87.3698 3.31712 87.0523 3.31712C86.7561 3.31712 86.4958 3.36786 86.2715 3.46934C86.0514 3.57082 85.8779 3.70402 85.751 3.86892C85.6282 4.03383 85.5669 4.21142 85.5669 4.40169H84.3925C84.3925 4.15645 84.4559 3.91332 84.5829 3.6723C84.7099 3.43129 84.8918 3.21353 85.1288 3.01903C85.3701 2.8203 85.6579 2.66385 85.9922 2.54968C86.3308 2.43129 86.7074 2.37209 87.1222 2.37209C87.6216 2.37209 88.0617 2.45666 88.4426 2.62579C88.8277 2.79493 89.1282 3.05074 89.344 3.39323C89.5641 3.7315 89.6741 4.15645 89.6741 4.66808V7.86469C89.6741 8.09302 89.6932 8.33615 89.7313 8.59408C89.7736 8.85201 89.8349 9.074 89.9154 9.26004V9.36152H88.6902C88.6309 9.22622 88.5844 9.04651 88.5505 8.82241C88.5166 8.59408 88.4997 8.38266 88.4997 8.18816ZM88.7029 5.20085L88.7156 6.02537H87.5285C87.1941 6.02537 86.8958 6.05285 86.6334 6.10782C86.371 6.15856 86.1509 6.23679 85.9732 6.34249C85.7954 6.4482 85.66 6.5814 85.5669 6.74207C85.4738 6.89852 85.4272 7.08245 85.4272 7.29387C85.4272 7.50951 85.4759 7.70613 85.5732 7.88372C85.6706 8.06131 85.8166 8.20296 86.0112 8.30867C86.2102 8.41015 86.4535 8.46089 86.7413 8.46089C87.101 8.46089 87.4184 8.38478 87.6935 8.23256C87.9686 8.08034 88.1865 7.89429 88.3474 7.67442C88.5124 7.45455 88.6013 7.24101 88.614 7.03383L89.1155 7.59831C89.0859 7.7759 89.0055 7.97252 88.8743 8.18816C88.7431 8.40381 88.5674 8.61099 88.3474 8.80972C88.1315 9.00423 87.8734 9.16702 87.5729 9.2981C87.2766 9.42495 86.9423 9.48837 86.5699 9.48837C86.1044 9.48837 85.696 9.39746 85.3447 9.21564C84.9977 9.03383 84.7268 8.7907 84.5321 8.48626C84.3417 8.17759 84.2465 7.83298 84.2465 7.45243C84.2465 7.08457 84.3184 6.7611 84.4623 6.48203C84.6062 6.19873 84.8136 5.96406 85.0844 5.77801C85.3553 5.58774 85.6811 5.44397 86.062 5.34672C86.4429 5.24947 86.8682 5.20085 87.338 5.20085H88.7029Z" fill="#0AA9B4"/>
<path d="M91.623 2.49894H92.7974V8.39746H95.3113V2.49894H96.4921V8.39746H98.9996V2.49894H100.174V9.36152H91.623V2.49894Z" fill="#0AA9B4"/>
<path d="M103.323 2.49894V9.36152H102.148V2.49894H103.323ZM107.83 2.49894L104.573 6.43129H102.929L102.751 5.40381H104.097L106.402 2.49894H107.83ZM106.567 9.36152L104.04 6.2537L104.795 5.40381L108.058 9.36152H106.567Z" fill="#0AA9B4"/>
<path d="M111.829 9.48837C111.351 9.48837 110.917 9.40803 110.528 9.24736C110.143 9.08245 109.811 8.85201 109.531 8.55603C109.256 8.26004 109.044 7.90909 108.896 7.50317C108.748 7.09725 108.674 6.65328 108.674 6.17125V5.90486C108.674 5.34672 108.757 4.84989 108.922 4.41438C109.087 3.97463 109.311 3.60254 109.595 3.2981C109.878 2.99366 110.2 2.76321 110.56 2.60677C110.919 2.45032 111.292 2.37209 111.677 2.37209C112.168 2.37209 112.591 2.45666 112.946 2.62579C113.306 2.79493 113.6 3.03171 113.829 3.33615C114.057 3.63636 114.227 3.99154 114.337 4.40169C114.447 4.80761 114.502 5.25159 114.502 5.73362V6.26004H109.372V5.30233H113.327V5.21353C113.31 4.90909 113.247 4.61311 113.137 4.32558C113.031 4.03806 112.862 3.80127 112.629 3.61522C112.396 3.42918 112.079 3.33615 111.677 3.33615C111.41 3.33615 111.165 3.39323 110.94 3.5074C110.716 3.61734 110.524 3.78224 110.363 4.00211C110.202 4.22199 110.077 4.49049 109.988 4.80761C109.899 5.12474 109.855 5.49049 109.855 5.90486V6.17125C109.855 6.49683 109.899 6.80338 109.988 7.09091C110.081 7.37421 110.215 7.62368 110.388 7.83932C110.566 8.05497 110.78 8.2241 111.029 8.34672C111.283 8.46935 111.571 8.53066 111.893 8.53066C112.307 8.53066 112.659 8.44609 112.946 8.27696C113.234 8.10782 113.486 7.88161 113.702 7.59831L114.413 8.16279C114.265 8.38689 114.076 8.60042 113.848 8.80338C113.619 9.00634 113.338 9.17125 113.004 9.2981C112.674 9.42495 112.282 9.48837 111.829 9.48837Z" fill="#0AA9B4"/>
<path d="M120.533 5.47357V6.42495H116.901V5.47357H120.533ZM117.149 2.49894V9.36152H115.975V2.49894H117.149ZM121.485 2.49894V9.36152H120.304V2.49894H121.485Z" fill="#0AA9B4"/>
<path d="M126.176 2.49894V9.36152H124.995V2.49894H126.176ZM128.48 2.49894V3.45032H122.735V2.49894H128.48Z" fill="#0AA9B4"/>
<path d="M133.584 8.18816V4.65539C133.584 4.38478 133.529 4.15011 133.419 3.95137C133.314 3.74841 133.153 3.59197 132.937 3.48203C132.721 3.37209 132.454 3.31712 132.137 3.31712C131.841 3.31712 131.58 3.36786 131.356 3.46934C131.136 3.57082 130.963 3.70402 130.836 3.86892C130.713 4.03383 130.652 4.21142 130.652 4.40169H129.477C129.477 4.15645 129.541 3.91332 129.668 3.6723C129.795 3.43129 129.976 3.21353 130.213 3.01903C130.455 2.8203 130.743 2.66385 131.077 2.54968C131.415 2.43129 131.792 2.37209 132.207 2.37209C132.706 2.37209 133.146 2.45666 133.527 2.62579C133.912 2.79493 134.213 3.05074 134.429 3.39323C134.649 3.7315 134.759 4.15645 134.759 4.66808V7.86469C134.759 8.09302 134.778 8.33615 134.816 8.59408C134.858 8.85201 134.92 9.074 135 9.26004V9.36152H133.775C133.716 9.22622 133.669 9.04651 133.635 8.82241C133.601 8.59408 133.584 8.38266 133.584 8.18816ZM133.788 5.20085L133.8 6.02537H132.613C132.279 6.02537 131.98 6.05285 131.718 6.10782C131.456 6.15856 131.236 6.23679 131.058 6.34249C130.88 6.4482 130.745 6.5814 130.652 6.74207C130.558 6.89852 130.512 7.08245 130.512 7.29387C130.512 7.50951 130.561 7.70613 130.658 7.88372C130.755 8.06131 130.901 8.20296 131.096 8.30867C131.295 8.41015 131.538 8.46089 131.826 8.46089C132.186 8.46089 132.503 8.38478 132.778 8.23256C133.053 8.08034 133.271 7.89429 133.432 7.67442C133.597 7.45455 133.686 7.24101 133.699 7.03383L134.2 7.59831C134.171 7.7759 134.09 7.97252 133.959 8.18816C133.828 8.40381 133.652 8.61099 133.432 8.80972C133.216 9.00423 132.958 9.16702 132.658 9.2981C132.361 9.42495 132.027 9.48837 131.655 9.48837C131.189 9.48837 130.781 9.39746 130.429 9.21564C130.082 9.03383 129.811 8.7907 129.617 8.48626C129.426 8.17759 129.331 7.83298 129.331 7.45243C129.331 7.08457 129.403 6.7611 129.547 6.48203C129.691 6.19873 129.898 5.96406 130.169 5.77801C130.44 5.58774 130.766 5.44397 131.147 5.34672C131.528 5.24947 131.953 5.20085 132.423 5.20085H133.788Z" fill="#0AA9B4"/>
</svg>
